<svg width="22" height="21" viewBox="0 0 22 21" fill="none" xmlns="http://www.w3.org/2000/svg">
<path d="M1 10.7473C1 12.0099 1.25866 13.2602 1.7612 14.4266C2.26375 15.5931 3.00035 16.653 3.92893 17.5458C4.85752 18.4386 5.95991 19.1468 7.17317 19.63C8.38642 20.1132 9.68678 20.3619 11 20.3619C12.3132 20.3619 13.6136 20.1132 14.8268 19.63C16.0401 19.1468 17.1425 18.4386 18.0711 17.5458C18.9997 16.653 19.7363 15.5931 20.2388 14.4266C20.7413 13.2602 21 12.0099 21 10.7473C21 8.19737 19.9464 5.75187 18.0711 3.94879C16.1957 2.14571 13.6522 1.13275 11 1.13275C8.34784 1.13275 5.8043 2.14571 3.92893 3.94879C2.05357 5.75187 1 8.19737 1 10.7473Z" stroke="#127A73" stroke-linecap="round" stroke-linejoin="round"/>
<path d="M11 5.40591V10.7473L14.3333 13.9522" stroke="#127A73" stroke-linecap="round" stroke-linejoin="round"/>
</svg>
