<svg width="20" height="20" viewBox="0 0 20 20" fill="none" xmlns="http://www.w3.org/2000/svg">
<path d="M13.2643 17.1158H16.75C16.8228 17.1158 16.8921 17.0882 16.9428 17.04C16.9935 16.9918 17.0214 16.927 17.0214 16.8601V8.27588C17.0214 8.23797 17.0124 8.20046 16.9949 8.1661C16.9775 8.13172 16.9521 8.10129 16.9203 8.07717L16.9203 8.07715L10.1703 2.9413L13.2643 17.1158ZM13.2643 17.1158V10.7459C13.2643 10.4886 13.1568 10.2423 12.9663 10.0612C12.7759 9.88011 12.5182 9.7788 12.25 9.7788H7.75C7.48178 9.7788 7.22407 9.88011 7.03369 10.0612C6.84322 10.2423 6.73571 10.4886 6.73571 10.7459V17.1158H3.25C3.09779 17.1158 2.97857 16.9989 2.97857 16.8601L2.97857 8.27703L2.97857 8.27689C2.97847 8.23881 2.9874 8.20111 3.00482 8.16656C3.02225 8.132 3.04777 8.1014 3.07967 8.07717L3.0797 8.07715L9.82967 2.9413L13.2643 17.1158ZM8.56315 1.42976C8.97095 1.11907 9.47751 0.95 9.99936 0.95C10.5212 0.95 11.0278 1.11906 11.4356 1.42976L8.56315 1.42976ZM8.56315 1.42976C8.56314 1.42977 8.56313 1.42977 8.56313 1.42978L1.81444 6.56563C1.26892 6.9807 0.95 7.61028 0.95 8.27581V16.8601C0.95 17.4417 1.19296 17.999 1.62455 18.4095C2.05606 18.8199 2.64079 19.05 3.25 19.05H7.75C8.01822 19.05 8.27593 18.9487 8.46631 18.7676C8.65678 18.5865 8.76429 18.3402 8.76429 18.0829V11.713H11.2357V18.0829C11.2357 18.3402 11.3432 18.5865 11.5337 18.7676C11.7241 18.9487 11.9818 19.05 12.25 19.05H16.75C17.3592 19.05 17.9439 18.8199 18.3754 18.4095C18.807 17.999 19.05 17.4417 19.05 16.8601V8.27703C19.05 7.61029 18.7311 6.98071 18.1856 6.56563L11.4356 1.42978L8.56315 1.42976ZM10 2.88466C10.0622 2.88466 10.1222 2.90477 10.1703 2.94127H9.8297C9.87778 2.90477 9.93782 2.88466 10 2.88466Z" fill="#127A73" stroke="#127A73" stroke-width="0.1"/>
</svg>
