<svg width="20" height="20" viewBox="0 0 20 20" fill="none" xmlns="http://www.w3.org/2000/svg">
<path d="M9.82179 19.1753L9.99999 19.3565L10.1782 19.1753L10.9352 18.406L10.9356 18.4056C12.5819 16.7244 13.9382 15.2855 15.0037 14.0893C16.0701 12.8922 16.9178 11.8304 17.5441 10.9049C18.17 9.97993 18.6144 9.13352 18.8692 8.36706C19.1227 7.60486 19.25 6.83595 19.25 6.06123C19.25 4.57598 18.7997 3.31376 17.8908 2.29152C16.9806 1.26776 15.8452 0.75 14.5 0.75C13.5688 0.75 12.6964 1.01868 11.8877 1.55027C11.1751 2.01865 10.5468 2.67038 10 3.49799C9.45321 2.67038 8.82489 2.01865 8.11232 1.55027C7.30356 1.01868 6.43117 0.75 5.5 0.75C4.15481 0.75 3.0194 1.26776 2.10917 2.29152C1.20028 3.31376 0.75 4.57598 0.75 6.06123C0.75 6.83522 0.877337 7.60446 1.13072 8.36804C1.3856 9.13613 1.83006 9.98227 2.45611 10.9052C3.08247 11.8285 3.93323 12.8903 5.00563 14.0897C6.07679 15.2876 7.4294 16.7259 9.06285 18.4039L9.06379 18.4049L9.82179 19.1753ZM10.488 5.45082H10.6401L10.71 5.31573C11.2309 4.30922 11.8122 3.57309 12.4472 3.09087C13.0799 2.61033 13.7621 2.37472 14.5 2.37472C15.4283 2.37472 16.1938 2.71889 16.8132 3.41555C17.4342 4.11398 17.75 4.9898 17.75 6.06123C17.75 6.67377 17.639 7.2956 17.4144 7.92781C17.1914 8.55558 16.7882 9.29035 16.1954 10.1341C15.6029 10.9774 14.7931 11.9762 13.7634 13.1313C12.7724 14.243 11.5184 15.5723 10.0007 17.1196C8.48245 15.5594 7.2278 14.2262 6.23619 13.1196C5.20658 11.9705 4.39682 10.9756 3.80444 10.1339C3.21178 9.2918 2.80862 8.55712 2.58564 7.92798C2.36097 7.2941 2.25 6.67221 2.25 6.06123C2.25 4.99048 2.56875 4.11498 3.19601 3.41647C3.82308 2.71817 4.58601 2.37472 5.5 2.37472C6.2387 2.37472 6.91758 2.60712 7.54312 3.07986C8.17094 3.55508 8.75576 4.29474 9.29049 5.31673L9.36065 5.45082H9.512H10.488Z" fill="#127A73" stroke="#127A73" stroke-width="0.5"/>
</svg>
